:SAMPLES-PER-SECOND 30
:FULLY-SPECIFIED
:DEGREES
17
root  78.211 40.4702 -4.44626 -160.484 -88.9722 161.611
RightUpLeg  0.792449 -8.76667 -7.86893
RightLeg  0.591812 -2.95393 3.27386
RightFoot  -0.390527 -0.139454 1.42447
RightToes  -1.74624e-010 0 -3.6325e-017
Spine  1.86659 -0.0747233 0.0350907
Spine1  0.813476 0.100518 -1.11265
HEad  -5.72276 4.87195 -0.794109
LeftShoulder1  0.907085 -1.09052 -12.5577
LeftArm  -17.4074 6.45985 1.95522
LeftForeArm  6.75494 0.410195 -1.77276
LeftHand  -0.244104 0.0205437 5.32207
RightShoulder  0.434105 -0.436389 6.58737
RightArm  -19.7385 3.95688 -0.759614
RightForeArm  -0.845359 -0.114421 3.86436
RightHand  -1.20594 4.10211 -14.9411
LeftUpLeg  0.633524 5.87707 3.98418
LeftLeg  -0.349823 18.1921 -4.55763
LeftFoot  -1.11229 0.117962 -1.24477
LeftToes  1.61887e-010 9.40759e-012 5.52375e-011
18
root  78.203 40.4703 -4.4423 -161.154 -88.9687 162.311
RightUpLeg  0.779313 -8.76811 -7.86342
RightLeg  0.576046 -2.94684 3.28177
RightFoot  -0.375722 -0.139054 1.41827
RightToes  -1.74624e-010 0 -3.6325e-017
Spine  1.95149 -0.0887232 -0.143725
Spine1  0.737762 0.0367751 -0.854619
HEad  -5.45871 5.0329 -0.915699
LeftShoulder1  0.917591 -1.08552 -12.8318
LeftArm  -17.6101 6.34026 2.06479
LeftForeArm  7.05585 0.461556 -1.68168
LeftHand  -0.244104 0.0205437 5.32207
RightShoulder  0.433593 -0.444643 6.50724
RightArm  -19.9303 3.98249 -0.590229
RightForeArm  -0.0840898 -0.0166305 3.76345
RightHand  -1.22255 4.2634 -14.8993
LeftUpLeg  0.589057 5.88057 3.98667
LeftLeg  -0.291374 18.1953 -4.53764
LeftFoot  -1.1382 0.11923 -1.26073
LeftToes  1.61887e-010 9.40759e-012 5.52375e-011
19
root  78.1987 40.4703 -4.43793 -161.262 -88.9772 162.42
RightUpLeg  0.797747 -8.76769 -7.8683
RightLeg  0.550131 -2.9431 3.28451
RightFoot  -0.353436 -0.139339 1.42269
RightToes  -1.74624e-010 0 -3.6325e-017
Spine  2.05781 -0.126304 -0.258092
Spine1  0.677177 -0.0292225 -0.713823
HEad  -5.07481 5.26787 -1.09022
LeftShoulder1  0.918859 -1.03691 -13.0938
LeftArm  -18.0425 6.22213 2.0189
LeftForeArm  7.3132 0.237496 -1.53978
LeftHand  -0.244104 0.0205437 5.32207
RightShoulder  0.437513 -0.435063 6.6115
RightArm  -20.4538 3.99222 -0.303963
RightForeArm  0.412996 0.138103 3.58169
RightHand  -1.23994 4.37356 -14.9439
LeftUpLeg  0.577186 5.8658 3.97331
LeftLeg  -0.260884 18.2069 -4.50961
LeftFoot  -1.13907 0.119307 -1.25618
LeftToes  1.61887e-010 9.40759e-012 5.52375e-011
20
root  78.1924 40.47 -4.43265 -161.849 -88.9356 163
RightUpLeg  0.818449 -8.77652 -7.88506
RightLeg  0.527648 -2.88451 3.28984
RightFoot  -0.335988 -0.139737 1.42886
RightToes  -1.74624e-010 0 -3.6325e-017
Spine  2.1212 -0.193188 -0.191873
Spine1  0.670563 -0.0585902 -0.920147
HEad  -4.89189 5.33674 -1.06597
LeftShoulder1  0.913354 -0.986328 -13.2075
LeftArm  -18.9653 6.36425 1.60439
LeftForeArm  7.77181 -0.678926 -1.25791
LeftHand  -0.244104 0.0205437 5.32207
RightShoulder  0.47327 -0.318845 7.28461
RightArm  -21.0686 3.90939 0.0932554
RightForeArm  -1.10988 0.67247 3.55181
RightHand  -1.31266 4.41909 -15.7175
LeftUpLeg  0.619641 5.84438 3.95136
LeftLeg  -0.310807 18.2803 -4.5078
LeftFoot  -1.13362 0.117739 -1.22472
LeftToes  1.61887e-010 9.40759e-012 5.52375e-011
